<svg width="1305" height="1383" xmlns="http://www.w3.org/2000/svg" xmlns:xlink="http://www.w3.org/1999/xlink" xml:space="preserve" overflow="hidden"><defs><clipPath id="clip0"><rect x="753" y="2056" width="1305" height="1383"/></clipPath></defs><g clip-path="url(#clip0)" transform="translate(-753 -2056)"><path d="M566.64 1132.26C879.511 1132.26 1133.14 878.848 1133.14 566.256 1133.14 468.568 1108.37 376.663 1064.77 296.466L1040.34 256.289 775.68 426.087 798.633 468.339C811.375 498.435 818.419 531.519 818.419 566.256 818.419 705.188 705.694 817.812 566.64 817.812 427.587 817.812 314.862 705.188 314.862 566.256 314.862 427.324 427.587 314.697 566.64 314.697 601.404 314.697 634.521 321.737 664.642 334.47L665.395 334.879 781.516 42.6752 735.101 25.704C681.883 9.16203 625.303 0.256134 566.64 0.256134 253.769 0.256134 0.140041 253.661 0.140041 566.256 0.140041 878.848 253.769 1132.26 566.64 1132.26" fill="#01DF82" fill-rule="evenodd" transform="matrix(1 0 0 -1 753 3189)"/><path d="M258.787 506.284 523.192 336.396 515.594 323.881C420.656 183.276 286.22 71.5668 128.214 4.69633L116.16 0.283599 0.192319 292.543 5.81648 294.605C107.39 337.591 193.813 409.404 254.845 499.792Z" fill="#01DF82" fill-rule="evenodd" transform="matrix(1 0 0 -1 1534 3439)"/></g></svg>