<svg width="5184" height="1383" xmlns="http://www.w3.org/2000/svg" xmlns:xlink="http://www.w3.org/1999/xlink" xml:space="preserve" overflow="hidden"><defs><clipPath id="clip0"><rect x="753" y="2056" width="5184" height="1383"/></clipPath></defs><g clip-path="url(#clip0)" transform="translate(-753 -2056)"><path d="M3403.92 3226.72 3360.59 3347.5 3447.04 3347.5ZM5727.68 3190.18 5878 3190.18 5878 3214.19 5756.84 3214.19 5756.84 3299.12 5867.59 3299.12 5867.59 3322.79 5756.84 3322.79 5756.84 3409.81 5878 3409.81 5878 3433.82 5727.68 3433.82ZM4851.17 3190.18 4880.33 3190.18 5009.82 3385.44 5009.82 3190.18 5038.98 3190.18 5038.98 3433.82 5009.82 3433.82 4880.33 3238.56 4880.33 3433.82 4851.17 3433.82ZM4469.63 3190.18 4619.95 3190.18 4619.95 3214.19 4498.79 3214.19 4498.79 3299.12 4609.54 3299.12 4609.54 3322.79 4498.79 3322.79 4498.79 3409.81 4619.95 3409.81 4619.95 3433.82 4469.63 3433.82ZM4098.4 3190.18 4127.56 3190.18 4127.56 3410.5 4240.74 3410.5 4240.74 3433.82 4098.4 3433.82ZM3730.61 3190.18 3759.77 3190.18 3759.77 3410.5 3872.95 3410.5 3872.95 3433.82 3730.61 3433.82ZM3388.64 3190.18 3419.54 3190.18 3508.76 3433.82 3477.87 3433.82 3455.5 3371.17 3352.1 3371.17 3329.63 3433.82 3299.07 3433.82ZM2891.91 3190.18 2921.07 3190.18 2921.07 3297.73 3047.09 3297.73 3047.09 3190.18 3076.26 3190.18 3076.26 3433.82 3047.09 3433.82 3047.09 3321.75 2921.07 3321.75 2921.07 3433.82 2891.91 3433.82ZM5386.05 3186C5413.37 3186 5436.16 3192.55 5454.45 3205.67 5472.73 3218.78 5484.42 3237.05 5489.51 3260.49L5455.84 3260.49C5452.6 3245.87 5444.96 3234.27 5432.92 3225.68 5420.89 3217.09 5405.26 3212.8 5386.05 3212.8 5368.23 3212.8 5352.67 3216.8 5339.36 3224.81 5326.05 3232.81 5315.81 3244.24 5308.64 3259.09 5301.46 3273.94 5297.87 3291.7 5297.87 3312.35 5297.87 3333 5301.46 3350.81 5308.64 3365.78 5315.81 3380.74 5325.82 3392.17 5338.67 3400.06 5351.51 3407.95 5366.27 3411.89 5382.93 3411.89 5408.85 3411.89 5428.41 3404.24 5441.6 3388.92 5454.79 3373.61 5462.32 3352.84 5464.17 3326.62L5394.04 3326.62 5394.04 3303.65 5494.02 3303.65 5494.02 3433.82 5467.29 3433.82 5464.86 3393.8C5459.08 3403.31 5452.42 3411.37 5444.9 3417.99 5437.38 3424.6 5428.53 3429.59 5418.34 3432.95 5408.16 3436.32 5396.01 3438 5381.89 3438 5359.21 3438 5339.3 3432.72 5322.18 3422.16 5305.05 3411.6 5291.74 3396.93 5282.25 3378.13 5272.76 3359.34 5268.02 3337.41 5268.02 3312.35 5268.02 3287.52 5272.82 3265.59 5282.43 3246.56 5292.03 3227.54 5305.69 3212.68 5323.39 3202.01 5341.1 3191.34 5361.98 3186 5386.05 3186ZM2560.91 3186C2588.69 3186 2611.25 3192.61 2628.61 3205.84 2645.97 3219.07 2657.08 3237.75 2661.94 3261.88L2629.65 3261.88C2625.95 3246.8 2618.43 3234.67 2607.09 3225.51 2595.75 3216.34 2580.35 3211.76 2560.91 3211.76 2543.55 3211.76 2528.51 3215.76 2515.78 3223.77 2503.05 3231.77 2493.22 3243.26 2486.27 3258.22 2479.33 3273.19 2475.86 3291.12 2475.86 3312 2475.86 3332.88 2479.33 3350.81 2486.27 3365.78 2493.22 3380.74 2503.05 3392.23 2515.78 3400.23 2528.51 3408.24 2543.55 3412.24 2560.91 3412.24 2580.35 3412.24 2595.75 3407.78 2607.09 3398.84 2618.43 3389.91 2625.95 3378.02 2629.65 3363.17L2661.94 3363.17C2657.08 3386.6 2645.97 3404.93 2628.61 3418.16 2611.25 3431.39 2588.69 3438 2560.91 3438 2537.31 3438 2516.88 3432.72 2499.64 3422.16 2482.4 3411.6 2469.14 3396.87 2459.89 3377.96 2450.63 3359.05 2446 3337.06 2446 3312 2446 3286.94 2450.63 3264.95 2459.89 3246.04 2469.14 3227.13 2482.4 3212.4 2499.64 3201.84 2516.88 3191.28 2537.31 3186 2560.91 3186Z" fill-rule="evenodd"/><path d="M300.88 601.226C134.917 601.226 0.379329 466.688 0.379329 300.725 0.379329 134.762 134.917 0.225001 300.88 0.225001 466.84 0.225001 601.38 134.762 601.38 300.725 601.38 466.688 466.84 601.226 300.88 601.226M300.88 484.861C402.414 484.861 485.016 402.259 485.016 300.725 485.016 199.191 402.414 116.589 300.88 116.589 199.346 116.589 116.743 199.191 116.743 300.725 116.743 402.259 199.346 484.861 300.88 484.861" fill-rule="evenodd" transform="matrix(1 0 0 -1 3331 2908)"/><path d="M301.278 484.849C380.384 484.849 448 434.863 474.147 364.876L128.41 364.876C154.557 434.863 222.173 484.849 301.278 484.849M569.051 254.149 598.664 254.149C601.03 269.325 602.279 284.872 602.279 300.712 602.279 466.672 467.514 601.212 301.278 601.212 135.042 601.212 0.278108 466.672 0.278108 300.712 0.278108 134.749 135.042 0.21202 301.278 0.21202 425.15 0.21202 531.503 74.9365 577.689 181.676L441.836 181.676C407.979 141.888 357.547 116.576 301.278 116.576 215.688 116.576 143.543 175.084 122.826 254.139L569.051 254.139Z" fill-rule="evenodd" transform="matrix(1 0 0 -1 2406 2908)"/><path d="M115-0.0537481 0-0.0537481 0 842.946 115 842.946Z" fill-rule="evenodd" transform="matrix(1 0 0 -1 3111 2900)"/><path d="M301.027 484.849C380.001 484.849 447.498 434.867 473.608 364.886L128.448 364.886C154.555 434.867 222.056 484.849 301.027 484.849M568.357 254.149 597.922 254.149C600.284 269.325 601.527 284.872 601.527 300.712 601.527 466.672 466.987 601.212 301.027 601.212 135.067 601.212 0.526444 466.672 0.526444 300.712 0.526444 134.749 135.067 0.21202 301.027 0.21202 424.693 0.21202 530.869 74.9365 576.977 181.676L441.351 181.676C407.55 141.888 357.202 116.576 301.027 116.576 215.575 116.576 143.547 175.09 122.867 254.149L479.186 254.149Z" fill-rule="evenodd" transform="matrix(1 0 0 -1 4667 2908)"/><path d="M301.1 484.849C380.071 484.849 447.572 434.867 473.678 364.886L128.522 364.886C154.629 434.867 222.13 484.849 301.1 484.849M568.434 254.149 597.995 254.149C600.357 269.325 601.6 284.872 601.6 300.712 601.6 466.672 467.06 601.212 301.1 601.212 135.14 601.212 0.600002 466.672 0.600002 300.712 0.600002 134.749 135.14 0.21202 301.1 0.21202 424.766 0.21202 530.942 74.9365 577.051 181.676L441.424 181.676C407.623 141.888 357.275 116.576 301.1 116.576 215.649 116.576 143.62 175.09 122.941 254.149L479.26 254.149Z" fill-rule="evenodd" transform="matrix(1 0 0 -1 5335 2908)"/><path d="M286.016 195.648C236.996 199.64 192.463 222.505 160.624 260.027 128.78 297.549 113.441 345.24 117.432 394.312 121.208 440.745 142.15 483.648 176.414 515.119 210.518 546.442 254.631 563.697 300.626 563.7L300.633 563.7C305.677 563.7 310.81 563.49 315.887 563.078 364.904 559.083 409.44 536.221 441.28 498.699 473.119 461.174 488.462 413.486 484.471 364.414 480.696 317.978 459.75 275.071 425.489 243.601 391.386 212.278 347.275 195.026 301.284 195.026 296.233 195.026 291.094 195.236 286.016 195.648M600.446 354.966C613.904 520.545 490.729 665.7 325.325 679.172 317.025 679.85 308.801 680.18 300.619 680.18 145.723 680.167 14.2417 561.034 1.45738 403.76-12.0041 238.181 111.174 93.0267 276.579 79.5511 284.878 78.8765 293.102 78.5459 301.284 78.5459 336.103 78.5459 369.717 84.6107 401.088 95.7349L441.404 27.2791C451.66 9.867 469.999 0.18047 488.829 0.18047 498.318 0.18047 507.933 2.63991 516.703 7.81723 542.864 23.2546 551.569 57.0043 536.145 83.1926L496.287 150.872C554.438 200.688 593.746 272.573 600.446 354.966" fill-rule="evenodd" transform="matrix(1 0 0 -1 3999 2987)"/><path d="M566.64 1132.26C879.511 1132.26 1133.14 878.848 1133.14 566.256 1133.14 468.568 1108.37 376.663 1064.77 296.466L1040.34 256.289 775.68 426.087 798.633 468.339C811.375 498.435 818.419 531.519 818.419 566.256 818.419 705.188 705.694 817.812 566.64 817.812 427.587 817.812 314.862 705.188 314.862 566.256 314.862 427.324 427.587 314.697 566.64 314.697 601.404 314.697 634.521 321.737 664.642 334.47L665.395 334.879 781.516 42.6752 735.101 25.704C681.883 9.16203 625.303 0.256134 566.64 0.256134 253.769 0.256134 0.140041 253.661 0.140041 566.256 0.140041 878.848 253.769 1132.26 566.64 1132.26" fill="#01DF82" fill-rule="evenodd" transform="matrix(1 0 0 -1 753 3189)"/><path d="M258.787 506.284 523.192 336.396 515.594 323.881C420.656 183.276 286.22 71.5668 128.214 4.69633L116.16 0.283599 0.192319 292.543 5.81648 294.605C107.39 337.591 193.813 409.404 254.845 499.792Z" fill="#01DF82" fill-rule="evenodd" transform="matrix(1 0 0 -1 1534 3439)"/></g></svg>